<?xml version="1.0" standalone="no"?><!DOCTYPE svg PUBLIC "-//W3C//DTD SVG 1.1//EN" "http://www.w3.org/Graphics/SVG/1.1/DTD/svg11.dtd"><svg t="1583116185821" class="icon" viewBox="0 0 1787 1024" version="1.1" xmlns="http://www.w3.org/2000/svg" p-id="6874" xmlns:xlink="http://www.w3.org/1999/xlink" width="349.0234375" height="200"><defs><style type="text/css"></style></defs><path d="M89.362761 1022.685941a90.001066 90.001066 0 0 1-78.128585-43.787753 81.703096 81.703096 0 0 1 2.42556-86.426556l445.537194-680.816577a92.298966 92.298966 0 0 1 129.19302-22.978996l635.36923 455.367098 393.834454-602.560331A90.511711 90.511711 0 0 1 1696.360525 1.397245c31.915272 1.021289 60.766677 18.255535 75.703024 45.192024a81.703096 81.703096 0 0 1-2.936205 85.149946l-445.664855 680.816577a92.298966 92.298966 0 0 1-129.19302 22.978995L558.900239 380.16769l-393.834453 602.560331A90.001066 90.001066 0 0 1 89.362761 1022.685941z" p-id="6875"></path></svg>