<?xml version="1.0" standalone="no"?><!DOCTYPE svg PUBLIC "-//W3C//DTD SVG 1.1//EN" "http://www.w3.org/Graphics/SVG/1.1/DTD/svg11.dtd"><svg t="1583112162039" class="icon" viewBox="0 0 1024 1024" version="1.1" xmlns="http://www.w3.org/2000/svg" p-id="15485" xmlns:xlink="http://www.w3.org/1999/xlink" width="200" height="200"><defs><style type="text/css"></style></defs><path d="M512 760.9c-203.8 0-368.9-156-368.9-348.5C143.1 220 308.2 64 512 64c203.8 0 368.9 156 368.9 348.4 0 92.4-38.9 181-108.1 246.4-69.1 65.4-162.9 102.1-260.8 102.1z m0-497.8c-85.3 0-162.1 48.5-194.8 122.9s-14.6 160 45.7 217c60.3 56.9 151 74 229.8 43.2 78.8-30.8 130.1-103.4 130.1-184 0-109.9-94.4-199.1-210.8-199.1z m0 298.7c-58.2 0-105.4-44.6-105.4-99.6 0-55 47.2-99.6 105.4-99.6s105.4 44.6 105.4 99.6c0 26.4-11.1 51.7-30.9 70.4-19.7 18.7-46.5 29.2-74.5 29.2z m0 199.1c142.4 0.1 272 77.6 332.9 199.1H179.1C240 838.5 369.6 761 512 760.9z m0 0" fill="#666666" p-id="15486"></path></svg>