<?xml version="1.0" standalone="no"?><!DOCTYPE svg PUBLIC "-//W3C//DTD SVG 1.1//EN" "http://www.w3.org/Graphics/SVG/1.1/DTD/svg11.dtd"><svg t="1583111960405" class="icon" viewBox="0 0 1024 1024" version="1.1" xmlns="http://www.w3.org/2000/svg" p-id="6842" xmlns:xlink="http://www.w3.org/1999/xlink" width="200" height="200"><defs><style type="text/css"></style></defs><path d="M635.68030038 604.97672516h-58.25806699c-1.10218023 0-2.04690449-0.94472555-2.04690449-2.04690579v-193.66870684c0-17.16251201 14.01342727-31.17593799 31.17593798-31.17593799s31.17593799 14.01342727 31.17593801 31.17593799v193.66870684c0 1.10218023-0.94472555 2.04690449-2.04690451 2.04690579z" fill="#FFFFFF" p-id="6843"></path><path d="M635.68030038 623.24141613h-76.52275796l-2.04690449-20.31159676v-193.66870684c0-27.2395824 22.20104656-49.44062895 49.44062895-49.44062896 27.2395824 0 49.44062895 22.20104656 49.44062897 49.44062896v211.93339781l-20.31159547 2.04690579z m-42.19773522-36.37192852H619.61996862V409.26111253c0-7.24289503-5.8258067-13.06870173-13.06870174-13.06870172-7.08544033 0-13.06870173 5.98326139-13.06870172 13.06870172v177.60837508z" fill="#4E8CEE" p-id="6844"></path><path d="M818.93078501 954.46738999H110.51269856c-30.06326181 0-54.41618343-24.35292163-54.41618205-54.41618345V649.46804227c0-32.75048023 26.53628642-59.28676666 59.28676667-59.28676665h709.42579371c33.42228554 0 60.79832754 27.37604201 60.79832752 60.79832752v236.81116745c0 36.61335758-30.06326181 66.67661939-66.6766194 66.6766194z" fill="#BAD4FF" p-id="6845"></path><path d="M890.2837949 926.81317812h-55.73879843V585.29494589h53.53443924c24.40540575 0 44.40209441 19.99668737 44.40209441 44.40209311v255.07585858c0 22.98831742-18.89450843 42.04028053-42.19773522 42.04028054z" fill="#FFFFFF" p-id="6846"></path><path d="M893.27542624 603.08727406c10.54943316 0 19.52432459 8.97489145 19.5243246 19.52432461v250.6671402c0 10.54943316-8.97489145 19.52432459-19.5243246 19.5243246h-763.65303142c-10.54943316 0-19.52432459-8.97489145-19.52432589-19.5243246V622.45414526c0-10.54943316 8.97489145-19.52432459 19.52432589-19.52432589h763.65303142m0-36.37192723h-763.65303142c-30.70357522 0-55.89625312 25.1926779-55.89625313 55.89625312v250.66713891c0 30.70357522 25.1926779 55.89625312 55.89625313 55.89625313h763.65303142c30.70357522 0 55.89625312-25.1926779 55.89625312-55.89625313V622.45414526c0-30.70357522-25.03522321-55.89625312-55.89625312-55.89625312z" fill="#4E8CEE" p-id="6847"></path><path d="M222.67784603 747.78771472m-36.37192722 0a36.37192853 36.37192853 0 1 0 72.74385575 0 36.37192853 36.37192853 0 1 0-72.74385575 0Z" fill="#FFFFFF" p-id="6848"></path><path d="M222.67784603 795.18143918c-26.13740215 0-47.39372446-21.25632101-47.39372446-47.39372446s21.25632101-47.39372446 47.39372446-47.39372446 47.39372446 21.25632101 47.39372446 47.39372446-21.25632101 47.39372446-47.39372446 47.39372446z m0-72.74385576c-14.01342727 0-25.50758599 11.49415871-25.50758599 25.50758469 0 14.01342727 11.49415871 25.50758599 25.50758599 25.50758599s25.50758599-11.49415871 25.50758599-25.50758599c0-14.17088067-11.33670531-25.50758599-25.50758599-25.50758469z" fill="#4E8CEE" p-id="6849"></path><path d="M338.56416257 747.78771472m-36.37192853 0a36.37192853 36.37192853 0 1 0 72.74385575 0 36.37192853 36.37192853 0 1 0-72.74385575 0Z" fill="#FFFFFF" p-id="6850"></path><path d="M338.56416257 795.18143918c-26.13740215 0-47.39372446-21.25632101-47.39372446-47.39372446s21.25632101-47.39372446 47.39372446-47.39372446 47.39372446 21.25632101 47.39372317 47.39372446-21.25632101 47.39372446-47.39372317 47.39372446z m0-72.74385576c-14.01342727 0-25.50758599 11.49415871-25.50758599 25.50758469 0 14.01342727 11.49415871 25.50758599 25.50758599 25.50758599s25.50758599-11.49415871 25.50758468-25.50758599c0-14.17088067-11.49415871-25.50758599-25.50758468-25.50758469z" fill="#4E8CEE" p-id="6851"></path><path d="M852.80968742 400.2862211c-22.83086403 0-41.25300967-17.94978287-41.88282584-40.9381003l-0.1574534-5.03853584c0-105.65179017-93.52781399-194.92834048-204.37559469-194.92834048-109.90305515 0-202.80105297 89.27655031-202.80105297 194.92834048 0.15745469 1.25963363 0 2.99163005-0.78727086 7.40034971-2.51926727 21.09886761-19.99668737 36.84429002-41.09555499 36.84429001-21.4137757 0-39.52101198-16.06033177-42.19773521-37.47410746l-0.15745341-6.14071479c0-151.31351822 131.47428423-279.16635625 287.03906744-279.16635625 156.35205406 0 288.61360916 127.85283803 288.61360917 279.16635625 0 26.45231154-18.89450843 45.34681868-42.19773524 45.34681867z" fill="#BAD4FF" p-id="6852"></path><path d="M606.55126688 93.88028375c144.0706232 0 270.34891821 116.8310408 270.34891821 261.05911868v3.14908473c0 13.22615513-10.70688785 23.93304298-23.93304298 23.93304297-13.06870173 0-23.30322681-10.39197977-23.77558958-23.30322679 0 0-0.15745469-2.99163005-0.15745338-4.40871838 0-117.77576635-104.70706462-213.19303145-222.48283227-213.19303143-117.77576635 0-221.06574393 95.4172651-221.06574393 213.19303143v0.47236277c0 0.47236277-0.47236277 3.93635561-0.47236148 3.93635561-1.57454172 11.96652149-10.86434254 21.57123039-23.1457734 21.57123039-12.43888426 0-22.67340933-9.44725421-24.09049766-21.4137757v-3.9363556c-0.15745469-144.22807788 124.54629859-261.05911867 268.77437647-261.05911868m0-36.37192853c-165.48439889 0-305.3037584 136.197912-305.30375839 297.43104721v6.14071479l0.31490809 2.20435917c3.77890221 30.38866713 29.75884967 53.37698455 60.30497149 53.37698586 29.91630436 0 55.42389036-22.98831742 59.36024595-53.53443925 0.62981747-3.46399282 0.94472555-6.61307756 0.78727216-10.23452637 0.78727086-95.25981169 85.02528662-175.40401588 184.69381541-175.40401587 100.92816371 0 186.11090373 80.93147633 186.11090372 176.8211042 0 1.8894511 0.15745469 5.66835201 0.1574534 5.66835331 0.94472555 32.75048101 27.39703709 58.57297509 60.14751809 58.57297378 33.38029718 0 60.46242619-27.08212771 60.4624249-60.46242489v-3.14908473c-0.3149081-161.23313521-140.76408506-297.4310472-307.03575482-297.43104721z" fill="#4E8CEE" p-id="6853"></path><path d="M718.34377314 406.26948249c-16.06033177 0-28.97157882-12.59633895-29.4439416-28.65667072 0-48.18099532-37.00174469-85.18274001-82.50601805-85.18274003-44.71700251 0-81.08892974 35.74211106-82.34856466 79.9867508v4.25126368l-0.62981747 3.46399282c-1.57454172 14.01342727-14.01342727 25.3501313-28.81412412 25.35013259-14.95815153 0-27.55449049-11.17925063-29.44394159-26.13740346l-0.15745468-4.09381028c0-77.93984499 63.45405623-141.39390123 141.39390252-141.39390123s141.39390123 63.45405623 141.39390123 141.39390123c0.15745469 17.79232819-13.06870173 31.0184846-29.44394158 31.0184846z" fill="#BAD4FF" p-id="6854"></path><path d="M606.55126688 252.12178762c68.0202293 0 123.28666495 55.10898226 123.28666497 123.28666496v1.41708833c0 6.29816947-5.03853584 11.33670531-11.33670532 11.33670401-6.14071479 0-11.02179594-4.88108115-11.17925062-11.02179594V375.09354449c0-55.58134374-45.03191058-100.61325563-100.61325432-100.61325562s-100.61325563 45.03191058-100.61325563 100.61325562v0.1574534c0 0.3149081-0.3149081 1.8894511-0.31490809 1.88945109-0.78727086 5.66835201-5.03853584 10.23452507-11.02179593 10.23452508-5.8258067 0-10.70688785-4.56617307-11.33670532-10.07707039v-1.88945109c-0.15745469-68.1776827 54.95152757-123.28666495 123.12921026-123.28666496m0-36.52938192c-88.01691667 0-159.65859219 71.64167551-159.65859218 159.65859219V379.34480817l0.31490807 2.20435918c2.99163005 23.93304298 23.46068019 42.04028053 47.55117917 42.04028054 23.77558957 0 44.08718503-18.10723628 47.07881508-42.04028054 0.3149081-1.41708833 0.62981747-4.09381029 0.47236277-7.55780309 0.47236277-34.9548402 29.1290335-63.45405623 64.24132709-63.45405625 35.42720297 0 64.24132709 28.81412413 64.2413271 64.2413271v3.30653943c0.78727086 25.82249407 21.72868379 46.29154422 47.55117916 46.29154421 26.29485685 0 47.70863255-21.4137757 47.70863255-47.70863253 0.15745469-89.43400499-71.48422212-161.07568052-159.50113881-161.07568052z" fill="#4E8CEE" p-id="6855"></path></svg>