<?xml version="1.0" standalone="no"?><!DOCTYPE svg PUBLIC "-//W3C//DTD SVG 1.1//EN" "http://www.w3.org/Graphics/SVG/1.1/DTD/svg11.dtd"><svg t="1583112013472" class="icon" viewBox="0 0 1024 1024" version="1.1" xmlns="http://www.w3.org/2000/svg" p-id="7669" xmlns:xlink="http://www.w3.org/1999/xlink" width="200" height="200"><defs><style type="text/css"></style></defs><path d="M995.6096 965.12c-4.7616-35.9424-21.8112-63.9488-54.784-80.64-19.968-10.0864-40.6016-18.7904-61.2864-27.3408-39.5264-16.2816-78.9504-32.9216-120.576-43.776a202.0352 202.0352 0 0 1-61.952-26.9824c-26.112-17.408-42.5984-40.8576-43.8272-72.704-1.28-33.0752 6.3488-62.1056 38.144-80.384 14.7968-8.4992 25.088-21.8112 31.2832-37.6832 5.6832-14.4384 10.3936-29.2352 15.872-43.776 1.1264-2.8672 3.1744-6.4512 5.7344-7.6288 12.3392-5.4784 21.6576-14.1312 28.0064-25.7024 10.8544-19.8656 15.104-41.216 12.1344-63.6416-1.536-11.0592-4.9664-21.9648-13.7728-29.696-4.1472-3.6352-4.9152-7.3216-4.8128-12.1856 0.2048-10.752 0.0512-21.4528 0.0512-31.9488H279.0656c0 11.9808 0.1536 23.296-0.1024 34.6624a16.9984 16.9984 0 0 1-2.56 8.8064c-8.192 11.8784-13.6192 24.832-14.8992 39.0656-2.7648 30.4128 5.4272 57.7024 31.0272 75.776 10.24 7.2192 16.128 14.592 18.8416 25.856 0.8192 3.328 2.048 6.5536 3.1744 9.8304 8.2944 23.552 18.5856 45.7728 40.448 60.5696 5.9392 4.0448 10.8032 9.5232 16.1792 14.336 7.8336 6.9632 13.7728 15.5136 15.2064 25.7024 2.048 14.336 2.816 28.8768 3.3792 43.4176 0.6144 17.2544-5.4784 32.4608-17.152 45.2608a176.128 176.128 0 0 1-72.2944 47.3088c-42.3936 15.0016-85.7088 27.648-128.4096 41.984-26.368 8.9088-52.7872 17.92-78.336 28.8768-35.9936 15.4624-58.112 42.24-62.1568 82.1248l-0.1024 0.768c-1.1776 11.264-3.6352 22.3232-5.5296 33.4336V1024h440.0128c5.2224-39.7312 15.872-78.2336 27.8016-116.3264 1.7408-5.7344 1.1776-9.0624-3.3792-13.312a154.88 154.88 0 0 1-16.896-19.5584c-5.12-6.656-5.12-14.2336-1.6896-21.7088 6.656-14.3872 17.9712-24.6272 30.7712-33.4848 1.6384-1.1264 4.2496-1.1264 6.4-1.1776H514.3296c3.84-0.0512 7.68 0.1536 11.52 0.256a50.5344 50.5344 0 0 0 6.8608-0.512 42.8544 42.8544 0 0 1 9.8304-0.4096c15.4112-0.9728 26.88 6.3488 37.7856 16.896 21.6064 20.9408 22.6816 38.912 0.6144 59.392-7.5264 6.9632-7.68 12.5952-5.632 21.5552 8.2944 35.9936 15.5648 72.192 23.1936 108.3904H998.5792v-41.472c-1.024-5.8368-2.2016-11.5712-2.9696-17.408zM830.4896 351.0784c1.7408 0 3.5328-0.2048 5.2224 0 5.0176 0.6656 6.912-1.6384 6.2976-6.3488-1.5872-12.4416-2.4064-25.088-5.0176-37.2736-4.6592-21.504-17.92-35.328-40.192-39.936-1.4336-0.256-2.8672-0.7168-4.352-1.024-7.5264-1.6896-10.6496-5.9392-11.3664-14.0288-1.3824-16.128-2.3552-32.768-6.8608-48.1792a280.576 280.576 0 0 0-4.7104-14.4896l-0.0512-0.1536c-35.1744-99.84-110.4384-125.7984-151.5008-139.4176-5.2224-1.7408-7.68 0.768-9.3184 4.608-3.4304 7.8848-7.3728 15.7696-9.3696 24.064-10.3424 42.7008-20.1216 85.504-30.208 128.256-0.3584 1.6384-0.9216 3.2256-1.4336 4.8128-1.1776-1.792-1.1776-3.2768-1.1776-4.7616l0.1024-168.9088c0-4.9152 0.1536-9.8816-0.4608-14.7456a25.9072 25.9072 0 0 0-25.6-23.3472 946.5344 946.5344 0 0 0-39.68 0 23.7056 23.7056 0 0 0-22.7328 15.36 46.6432 46.6432 0 0 0-2.9184 17.2544c-0.2048 56.576-0.1024 113.1008-0.1024 169.6256v7.2704c-2.2016-2.6624-2.7648-5.2224-3.3792-7.8336-8.448-36.5568-16.4864-73.216-25.4976-109.568-3.1232-12.6464-8.448-24.7296-13.056-36.9664-1.536-4.0448-4.096-6.7584-9.7792-5.0688-91.2896 27.5456-160.6656 105.5232-163.0208 200.192-0.256 11.6224-1.7408 13.2096-13.0048 16.4864l-8.6016 2.4576a45.4656 45.4656 0 0 0-30.1056 26.7776c-7.5264 17.1008-8.5504 35.2768-9.0624 54.8864h630.9376z" fill="#C1CADC" p-id="7670"></path></svg>